<svg width="26" height="31" viewBox="0 0 26 31" fill="none" xmlns="http://www.w3.org/2000/svg">
<path id="Apple" d="M21.663 29.6221C19.983 31.2506 18.1488 30.9934 16.3831 30.222C14.5146 29.4335 12.8004 29.3992 10.829 30.222C8.36048 31.2849 7.05766 30.9763 5.58341 29.6221C-2.78208 20.9994 -1.54782 7.86836 7.94906 7.38837C10.2633 7.50837 11.8747 8.65691 13.2289 8.75976C15.2517 8.34834 17.1888 7.16552 19.3488 7.3198C21.9373 7.52551 23.8915 8.55405 25.1772 10.4054C19.8287 13.6111 21.0973 20.6566 26 22.628C25.0229 25.1993 23.7543 27.7535 21.6458 29.6392L21.663 29.6221ZM13.0575 7.28552C12.8004 3.46276 15.9031 0.308563 19.4688 0C19.9659 4.42274 15.4574 7.71408 13.0575 7.28552Z" fill="white"/>
</svg>
