<svg width="33" height="32" viewBox="0 0 33 32" fill="none" xmlns="http://www.w3.org/2000/svg">
<g id="Google Logo">
<path id="Vector" d="M29.6926 13.3886H28.5957V13.3333H16.3404V18.6666H24.0361C22.9133 21.7713 19.8965 24 16.3404 24C11.8284 24 8.1702 20.418 8.1702 16C8.1702 11.582 11.8284 7.99996 16.3404 7.99996C18.4231 7.99996 20.3179 8.76929 21.7607 10.026L25.6122 6.25463C23.1802 4.03529 19.9271 2.66663 16.3404 2.66663C8.82041 2.66663 2.72339 8.63663 2.72339 16C2.72339 23.3633 8.82041 29.3333 16.3404 29.3333C23.8604 29.3333 29.9574 23.3633 29.9574 16C29.9574 15.106 29.8635 14.2333 29.6926 13.3886Z" fill="#FFC107"/>
<path id="Vector_2" d="M4.29349 9.79396L8.76736 13.0066C9.97791 10.072 12.9097 7.99996 16.3405 7.99996C18.4232 7.99996 20.318 8.76929 21.7607 10.026L25.6123 6.25463C23.1803 4.03529 19.9272 2.66663 16.3405 2.66663C11.1102 2.66663 6.57434 5.55796 4.29349 9.79396Z" fill="#FF3D00"/>
<path id="Vector_3" d="M16.3404 29.3333C19.8577 29.3333 23.0536 28.0153 25.47 25.872L21.2555 22.38C19.8424 23.4322 18.1157 24.0013 16.3404 24C12.7986 24 9.79131 21.7886 8.65838 18.7026L4.21786 22.0526C6.47148 26.3706 11.0482 29.3333 16.3404 29.3333Z" fill="#4CAF50"/>
<path id="Vector_4" d="M29.6926 13.3887H28.5958V13.3334H16.3405V18.6667H24.0361C23.4991 20.1443 22.5317 21.4355 21.2535 22.3807L21.2555 22.3794L25.47 25.8714C25.1718 26.1367 29.9575 22.6667 29.9575 16C29.9575 15.106 29.8635 14.2334 29.6926 13.3887Z" fill="#1976D2"/>
</g>
</svg>
