<svg width="31" height="22" viewBox="0 0 31 22" fill="none" xmlns="http://www.w3.org/2000/svg">
<path id="Meta" fill-rule="evenodd" clip-rule="evenodd" d="M9.27172 0.0140862C6.78335 -0.157526 4.80201 1.28714 3.41663 3.10154C2.02345 4.92687 1.04214 7.34504 0.499225 9.76009C-0.0405728 12.1736 -0.176302 14.7353 0.258968 16.8804C0.683318 18.9647 1.76291 21.1083 4.03443 21.787C6.20143 22.4344 8.14532 21.514 9.63055 20.2643C11.1189 19.0131 12.4075 17.2283 13.4466 15.5044C14.261 14.1518 14.9568 12.7742 15.5028 11.5979C16.0488 12.7727 16.7446 14.1518 17.5575 15.5044C18.5965 17.2283 19.8851 19.0131 21.3735 20.2643C22.8587 21.514 24.8026 22.4344 26.9696 21.787C29.2411 21.1083 30.3207 18.9647 30.7451 16.8804C31.1819 14.7353 31.0446 12.1736 30.5048 9.76009C29.9619 7.34504 28.9806 4.92531 27.5874 3.10154C26.2036 1.28714 24.2223 -0.159086 21.7339 0.0140862C19.0286 0.201299 17.1004 2.30589 15.9818 3.89564C15.8158 4.13322 15.6561 4.37512 15.5028 4.62109C15.3492 4.37501 15.1889 4.1331 15.0223 3.89564C13.9037 2.30433 11.977 0.20286 9.27172 0.0140862ZM13.718 7.85364C13.2765 8.96912 12.2047 11.5168 10.7725 13.8959C9.80372 15.506 8.72412 16.9506 7.62113 17.8773C6.51813 18.8056 5.65227 19.0131 4.92994 18.7978C4.31213 18.6137 3.65533 17.9241 3.31678 16.2595C2.99228 14.6573 3.07185 12.5542 3.54456 10.4434C4.01883 8.33259 4.85193 6.36529 5.8972 4.99396C6.95028 3.61326 8.033 3.0563 9.05487 3.12807C10.2499 3.21075 11.4418 4.22794 12.4684 5.68977C13.0425 6.5057 13.4715 7.331 13.7165 7.85208L13.718 7.85364ZM17.2876 7.85364C17.7275 8.96912 18.8009 11.5168 20.2315 13.8959C21.2019 15.506 22.2815 16.9506 23.3829 17.8773C24.4875 18.8056 25.3518 19.0131 26.0757 18.7978C26.6919 18.6137 27.3487 17.9241 27.6873 16.2595C28.0133 14.6573 27.9338 12.5542 27.4595 10.4434C26.9852 8.33259 26.1537 6.36529 25.1068 4.99396C24.0538 3.61326 22.9726 3.0563 21.9492 3.12807C20.7541 3.21075 19.5622 4.22794 18.5357 5.68977C18.0601 6.37451 17.6426 7.0978 17.2876 7.85208V7.85364Z" fill="#1976D2"/>
</svg>
